#Comment line ignore any data following # character 
#Hierarchical Translation and Rotation (.htr) file 
[Header]	
#Header keywords are followed by a single value 
FileType HTR		#Single word string
DataType HTRS		#Translation followed by rotation and scale data
FileVersion 1		#integer
NumSegments 64		#integer
NumFrames 2		#integer
DataFrameRate 30		#integer, data frame rate in this file
EulerRotationOrder ZYX
CalibrationUnits mm
RotationUnits Degrees
GlobalAxisofGravity Y
BoneLengthAxis Y
ScaleFactor 1.00
[SegmentNames&Hierarchy]
#CHILD	PARENT
Pinger_Root GLOBAL
Pelvis Pinger_Root
L_Hip Pelvis
R_Hip Pelvis
Rear_Leg01 Pelvis
Spine1 Pelvis
L_Leg01 L_Hip
L_Leg02 L_Leg01
L_Leg03 L_Leg02
L_Foot L_Leg03
L_Toe1_01 L_Foot
L_Toe2_01 L_Foot
L_Toe3_01 L_Foot
planeAlignerLeft L_Foot
L_Toe1_02 L_Toe1_01
L_Toe1_03 L_Toe1_02
L_Toe2_02 L_Toe2_01
L_Toe2_03 L_Toe2_02
L_Toe3_02 L_Toe3_01
L_Toe3_03 L_Toe3_02
planeLockWeightLeft planeAlignerLeft
R_Leg01 R_Hip
R_Leg02 R_Leg01
R_Leg03 R_Leg02
R_Foot R_Leg03
planeAlignerRight R_Foot
R_Toe1_01 R_Foot
R_Toe2_01 R_Foot
R_Toe3_01 R_Foot
planeLockWeightRight planeAlignerRight
R_Toe1_02 R_Toe1_01
R_Toe1_03 R_Toe1_02
R_Toe2_02 R_Toe2_01
R_Toe2_03 R_Toe2_02
R_Toe3_02 R_Toe3_01
R_Toe3_03 R_Toe3_02
Rear_Leg02 Rear_Leg01
Rear_Leg03 Rear_Leg02
Rear_Leg04 Rear_Leg03
Rear_Foot Rear_Leg04
planeAlignerCenter Rear_Foot
Rear_Toe1_01 Rear_Foot
Rear_Toe2_01 Rear_Foot
Rear_Toe3_01 Rear_Foot
planeLockWeightCenter planeAlignerCenter
Rear_Toe1_02 Rear_Toe1_01
Rear_Toe1_03 Rear_Toe1_02
Rear_Toe2_02 Rear_Toe2_01
Rear_Toe2_03 Rear_Toe2_02
Rear_Toe3_02 Rear_Toe3_01
Rear_Toe3_03 Rear_Toe3_02
Back_Bone Spine1
Head Spine1
Motor_Bone Back_Bone
Ping_Mechanism Back_Bone
BN_LookIK Head
bottomMouth Head
L_Mouth01 Head
L_mouthFront Head
mouthGun Head
R_Mouth01 Head
R_mouthFront Head
TopMouth Head
weapon_bone Head
[BasePosition]
#SegmentName Tx, Ty, Tz, Rx, Ry, Rz, BoneLength
Pinger_Root 0.000000 0.000000 0.000000 -90.000000 0.000000 0.000000 10.000000 
Pelvis 0.000000 0.000000 0.000000 0.000000 0.000000 0.000000 10.000000 
L_Hip 0.000000 0.000000 0.000000 0.000000 0.000000 0.000000 10.000000 
R_Hip 0.000000 0.000000 0.000000 0.000000 0.000000 0.000000 10.000000 
Rear_Leg01 0.000000 0.000000 0.000000 0.000000 0.000000 0.000000 10.000000 
Spine1 0.000000 0.000000 0.000000 0.000000 0.000000 0.000000 10.000000 
L_Leg01 0.000000 0.000000 0.000000 0.000000 0.000000 0.000000 10.000000 
L_Leg02 0.000000 0.000000 0.000000 0.000000 0.000000 0.000000 10.000000 
L_Leg03 0.000000 0.000000 0.000000 0.000000 0.000000 0.000000 10.000000 
L_Foot 0.000000 0.000000 0.000000 0.000000 0.000000 0.000000 10.000000 
L_Toe1_01 0.000000 0.000000 0.000000 0.000000 0.000000 0.000000 10.000000 
L_Toe2_01 0.000000 0.000000 0.000000 0.000000 0.000000 0.000000 10.000000 
L_Toe3_01 0.000000 0.000000 0.000000 0.000000 0.000000 0.000000 10.000000 
planeAlignerLeft 0.000000 0.000000 0.000000 0.000000 0.000000 0.000000 10.000000 
L_Toe1_02 0.000000 0.000000 0.000000 0.000000 0.000000 0.000000 10.000000 
L_Toe1_03 0.000000 0.000000 0.000000 0.000000 0.000000 0.000000 10.000000 
L_Toe2_02 0.000000 0.000000 0.000000 0.000000 0.000000 0.000000 10.000000 
L_Toe2_03 0.000000 0.000000 0.000000 0.000000 0.000000 0.000000 10.000000 
L_Toe3_02 0.000000 0.000000 0.000000 0.000000 0.000000 0.000000 10.000000 
L_Toe3_03 0.000000 0.000000 0.000000 0.000000 0.000000 0.000000 10.000000 
planeLockWeightLeft 0.000000 0.000000 0.000000 0.000000 0.000000 0.000000 10.000000 
R_Leg01 0.000000 0.000000 0.000000 0.000000 0.000000 0.000000 10.000000 
R_Leg02 0.000000 0.000000 0.000000 0.000000 0.000000 0.000000 10.000000 
R_Leg03 0.000000 0.000000 0.000000 0.000000 0.000000 0.000000 10.000000 
R_Foot 0.000000 0.000000 0.000000 0.000000 0.000000 0.000000 10.000000 
planeAlignerRight 0.000000 0.000000 0.000000 0.000000 0.000000 0.000000 10.000000 
R_Toe1_01 0.000000 0.000000 0.000000 0.000000 0.000000 0.000000 10.000000 
R_Toe2_01 0.000000 0.000000 0.000000 0.000000 0.000000 0.000000 10.000000 
R_Toe3_01 0.000000 0.000000 0.000000 0.000000 0.000000 0.000000 10.000000 
planeLockWeightRight 0.000000 0.000000 0.000000 0.000000 0.000000 0.000000 10.000000 
R_Toe1_02 0.000000 0.000000 0.000000 0.000000 0.000000 0.000000 10.000000 
R_Toe1_03 0.000000 0.000000 0.000000 0.000000 0.000000 0.000000 10.000000 
R_Toe2_02 0.000000 0.000000 0.000000 0.000000 0.000000 0.000000 10.000000 
R_Toe2_03 0.000000 0.000000 0.000000 0.000000 0.000000 0.000000 10.000000 
R_Toe3_02 0.000000 0.000000 0.000000 0.000000 0.000000 0.000000 10.000000 
R_Toe3_03 0.000000 0.000000 0.000000 0.000000 0.000000 0.000000 10.000000 
Rear_Leg02 0.000000 0.000000 0.000000 0.000000 0.000000 0.000000 10.000000 
Rear_Leg03 0.000000 0.000000 0.000000 0.000000 0.000000 0.000000 10.000000 
Rear_Leg04 0.000000 0.000000 0.000000 0.000000 0.000000 0.000000 10.000000 
Rear_Foot 0.000000 0.000000 0.000000 0.000000 0.000000 0.000000 10.000000 
planeAlignerCenter 0.000000 0.000000 0.000000 0.000000 0.000000 0.000000 10.000000 
Rear_Toe1_01 0.000000 0.000000 0.000000 0.000000 0.000000 0.000000 10.000000 
Rear_Toe2_01 0.000000 0.000000 0.000000 0.000000 0.000000 0.000000 10.000000 
Rear_Toe3_01 0.000000 0.000000 0.000000 0.000000 0.000000 0.000000 10.000000 
planeLockWeightCenter 0.000000 0.000000 0.000000 0.000000 0.000000 0.000000 10.000000 
Rear_Toe1_02 0.000000 0.000000 0.000000 0.000000 0.000000 0.000000 10.000000 
Rear_Toe1_03 0.000000 0.000000 0.000000 0.000000 0.000000 0.000000 10.000000 
Rear_Toe2_02 0.000000 0.000000 0.000000 0.000000 0.000000 0.000000 10.000000 
Rear_Toe2_03 0.000000 0.000000 0.000000 0.000000 0.000000 0.000000 10.000000 
Rear_Toe3_02 0.000000 0.000000 0.000000 0.000000 0.000000 0.000000 10.000000 
Rear_Toe3_03 0.000000 0.000000 0.000000 0.000000 0.000000 0.000000 10.000000 
Back_Bone 0.000000 0.000000 0.000000 0.000000 0.000000 0.000000 10.000000 
Head 0.000000 0.000000 0.000000 0.000000 0.000000 0.000000 10.000000 
Motor_Bone 0.000000 0.000000 0.000000 0.000000 0.000000 0.000000 10.000000 
Ping_Mechanism 0.000000 0.000000 0.000000 0.000000 0.000000 0.000000 10.000000 
BN_LookIK 0.000000 0.000000 0.000000 0.000000 0.000000 0.000000 10.000000 
bottomMouth 0.000000 0.000000 0.000000 0.000000 0.000000 0.000000 10.000000 
L_Mouth01 0.000000 0.000000 0.000000 0.000000 0.000000 0.000000 10.000000 
L_mouthFront 0.000000 0.000000 0.000000 0.000000 0.000000 0.000000 10.000000 
mouthGun 0.000000 0.000000 0.000000 0.000000 0.000000 0.000000 10.000000 
R_Mouth01 0.000000 0.000000 0.000000 0.000000 0.000000 0.000000 10.000000 
R_mouthFront 0.000000 0.000000 0.000000 0.000000 0.000000 0.000000 10.000000 
TopMouth 0.000000 0.000000 0.000000 0.000000 0.000000 0.000000 10.000000 
weapon_bone 0.000000 0.000000 0.000000 0.000000 0.000000 0.000000 10.000000 
#Beginning of Data. Separated by tabs
#Fr	Tx	Ty	Tz	Rx	Ry	Rz	SF
[Pinger_Root]
17 0.000004 299.999939 0.000000 -0.000075 -0.000000 -0.000020 299.999969
18 0.000008 599.999634 0.000000 -0.000075 -0.000000 -0.000020 599.999634
[Pelvis]
17 103.261177 1899.813354 4657.192871 -73.345322 -81.546852 66.261726 5030.844238
18 147.698685 1787.166138 4780.360352 -86.583832 -80.536331 78.772415 5105.646484
[L_Hip]
17 5.766392 125.831482 872.656799 171.696472 -78.221367 98.224052 881.701050
18 5.766392 125.831482 872.656799 174.998581 -79.737663 94.575897 881.701050
[R_Hip]
17 5.765438 125.836372 -872.654907 14.261604 79.013626 102.727882 881.699829
18 5.765438 125.836372 -872.654907 8.398508 80.324722 97.134720 881.699829
[Rear_Leg01]
17 -192.298416 -925.602966 -0.001907 177.154770 8.223842 -124.286957 945.367432
18 -192.298416 -925.602966 -0.001907 175.938583 7.840629 -122.760437 945.367432
[Spine1]
17 290.604584 5.007505 0.000477 5.998779 -5.405060 19.734533 290.647736
18 290.604584 5.007505 0.000477 7.456393 -4.178586 18.661234 290.647736
[L_Leg01]
17 761.932007 -0.002384 -0.069261 53.084625 -31.275881 -56.166218 761.932068
18 761.932007 -0.002384 -0.069261 55.845692 -27.775679 -58.579945 761.932068
[L_Leg02]
17 1441.140503 -0.000954 -0.000715 0.323840 -0.039535 -118.396210 1441.140503
18 1441.140503 -0.000954 -0.000715 -0.287273 0.070499 -112.615021 1441.140503
[L_Leg03]
17 1686.963989 -0.000715 -0.000954 0.002314 -0.000395 109.378052 1686.963989
18 1686.963989 -0.000715 -0.000954 0.005769 -0.000939 108.485847 1686.963989
[L_Foot]
17 3041.570068 -30.715107 11.297464 -4.239812 15.561901 66.008804 3041.746094
18 3041.570068 -30.715107 11.297464 -9.133187 15.790422 63.923927 3041.746094
[L_Toe1_01]
17 -188.216690 -224.732346 -21.137953 96.869743 -4.927170 -170.295135 293.899567
18 -188.216690 -224.732346 -21.137953 94.479362 -4.289304 -168.860809 293.899567
[L_Toe2_01]
17 200.746536 -219.926590 148.838394 -83.121704 -20.883835 -49.306133 332.896027
18 200.746536 -219.926590 148.838394 -81.301422 -18.646620 -47.517559 332.896027
[L_Toe3_01]
17 188.832520 -219.859131 -191.078659 -110.134026 12.841880 -57.644073 347.140900
18 188.832520 -219.859131 -191.078659 -108.695572 13.747933 -53.056171 347.140900
[planeAlignerLeft]
17 13.944559 -593.318176 67.424294 169.928040 -81.773979 93.590843 597.299683
18 4.479390 -594.546997 50.870235 170.267227 -84.534996 95.408875 596.736084
[L_Toe1_02]
17 413.761139 0.000477 0.000000 0.001391 -25.049433 0.001391 413.761139
18 413.761139 0.000477 0.000000 0.001397 -24.249098 0.001397 413.761139
[L_Toe1_03]
17 464.317322 0.000358 -0.000089 0.005793 66.590591 0.005793 464.317322
18 464.317322 0.000358 -0.000089 0.007717 72.504189 0.007717 464.317322
[L_Toe2_02]
17 342.235809 -0.000477 0.000238 0.001184 -75.137695 0.001184 342.235809
18 342.235809 -0.000477 0.000238 0.001182 -76.287598 0.001182 342.235809
[L_Toe2_03]
17 420.210846 -0.000715 0.000000 -179.981979 86.667511 -179.978485 420.210846
18 420.210846 -0.000715 0.000000 -179.992554 82.844398 -179.989044 420.210846
[L_Toe3_02]
17 329.270111 0.000954 0.000000 0.001177 -81.205963 0.001177 329.270111
18 329.270111 0.000954 0.000000 0.001177 -81.494209 0.001177 329.270111
[L_Toe3_03]
17 439.137451 -0.001907 0.000954 -179.997299 75.185997 -179.993774 439.137451
18 439.137451 -0.001907 0.000954 -179.997696 73.772751 -179.994156 439.137451
[planeLockWeightLeft]
17 -0.001068 0.000000 -0.000296 -0.011826 -0.004376 0.005620 0.001108
18 -0.001068 0.000000 -0.000296 -0.011826 -0.004376 0.005620 0.001108
[R_Leg01]
17 761.455627 -0.001907 -0.000358 97.523186 -29.552666 68.682732 761.455688
18 761.455627 -0.001907 -0.000358 95.894791 -22.098793 74.194008 761.455688
[R_Leg02]
17 1441.140625 0.000000 -0.000238 -0.191661 0.022267 -126.771820 1441.140625
18 1441.140625 0.000000 -0.000238 0.055895 -0.025793 -115.091301 1441.140625
[R_Leg03]
17 1686.963989 0.000954 0.001431 -0.031733 0.010312 101.789955 1686.963989
18 1686.963989 0.000954 0.001431 -0.031710 0.010382 102.044640 1686.963989
[R_Foot]
17 3041.560059 -30.531288 -11.204481 12.752912 -22.523142 84.619629 3041.734131
18 3041.560059 -30.531288 -11.204481 11.790889 -22.401613 83.277977 3041.734131
[planeAlignerRight]
17 -0.345764 -516.805054 0.108490 0.000000 -89.951546 -90.004936 516.805176
18 -0.415802 -560.698120 0.129700 0.000000 -89.951546 -90.004936 560.698303
[R_Toe1_01]
17 -188.383347 -224.864899 21.052242 90.678627 2.168117 -172.712662 294.101532
18 -188.383347 -224.864899 21.052242 90.617584 2.103078 -169.465439 294.101532
[R_Toe2_01]
17 200.637817 -220.002121 -148.787384 -99.155739 14.309180 -36.333717 332.857574
18 200.637817 -220.002121 -148.787384 -100.362381 13.595385 -40.070896 332.857574
[R_Toe3_01]
17 188.606735 -220.092957 191.126343 -76.922958 -17.776272 -38.208839 347.192566
18 188.606735 -220.092957 191.126343 -75.687271 -16.869762 -41.971798 347.192566
[planeLockWeightRight]
17 999.999756 0.000376 -0.000117 -0.011823 -0.004379 -0.000027 999.999756
18 999.999756 0.000387 -0.000131 -0.011823 -0.004379 -0.000027 999.999756
[R_Toe1_02]
17 413.762085 0.000477 -0.000119 0.001428 -20.563890 0.001428 413.762085
18 413.762085 0.000477 -0.000119 0.001422 -21.270472 0.001422 413.762085
[R_Toe1_03]
17 464.317810 0.000000 0.001088 -0.045763 88.503151 -0.042266 464.317810
18 464.317810 0.000000 0.001088 -0.018230 86.002823 -0.014731 464.317810
[R_Toe2_02]
17 342.234741 -0.000954 0.000238 -0.002334 -78.934151 -0.002334 342.234741
18 342.234741 -0.000954 0.000238 -0.002336 -78.188591 -0.002336 342.234741
[R_Toe2_03]
17 420.210846 0.000715 -0.000268 -179.994843 70.408470 -179.998398 420.210846
18 420.210846 0.000715 -0.000268 -179.994171 73.704720 -179.997711 420.210846
[R_Toe3_02]
17 329.270355 -0.000477 -0.000954 0.001176 -82.550079 0.001176 329.270355
18 329.270355 -0.000477 -0.000954 0.001177 -81.862793 0.001177 329.270355
[R_Toe3_03]
17 439.137939 0.000238 0.001431 -179.998657 68.788277 -179.995102 439.137939
18 439.137939 0.000238 0.001431 -179.998123 71.886009 -179.994583 439.137939
[Rear_Leg02]
17 1162.777710 -0.029802 0.005960 7.515165 -16.682621 -90.378967 1162.777710
18 1162.777710 -0.029802 0.005960 13.564560 -19.788839 -91.126823 1162.777710
[Rear_Leg03]
17 607.192505 -0.013351 -0.073195 0.010453 -0.005186 69.130280 607.192505
18 607.192505 -0.013351 -0.073195 0.010313 -0.005458 72.136696 607.192505
[Rear_Leg04]
17 995.874512 -0.020504 -0.011921 -0.040386 -0.018384 68.411140 995.874573
18 995.874512 -0.020504 -0.011921 -0.041451 -0.015838 75.539162 995.874573
[Rear_Foot]
17 3096.176270 -0.067472 -0.041425 -102.664459 71.410240 60.670071 3096.176270
18 3096.176270 -0.067472 -0.041425 -92.941254 66.105003 61.029530 3096.176270
[planeAlignerCenter]
17 1.582289 121.746017 -780.121948 7.349489 -0.001551 179.998245 789.566162
18 1.116322 166.376404 -779.098328 4.886792 -0.001588 179.998276 796.665894
[Rear_Toe1_01]
17 0.653352 83.966492 -371.173737 0.296526 59.392254 90.260971 380.553192
18 0.653352 83.966492 -371.173737 0.259464 56.026207 90.199768 380.553192
[Rear_Toe2_01]
17 178.200760 -294.826019 -362.060547 3.726792 65.352982 -65.199486 499.765686
18 178.200760 -294.826019 -362.060547 8.798217 77.798782 -61.523537 499.765686
[Rear_Toe3_01]
17 -153.359680 -308.780914 -362.060852 -2.513780 65.054863 -114.934448 499.952881
18 -153.359680 -308.780914 -362.060852 -10.548386 77.625252 -122.141335 499.952881
[planeLockWeightCenter]
17 156.250351 0.000458 -0.000000 -0.011814 -0.004373 -0.000015 156.250351
18 0.000298 0.000458 0.000000 -0.011814 -0.004373 -0.000015 0.000546
[Rear_Toe1_02]
17 379.707825 0.194073 0.000477 -0.000767 -33.624729 0.000838 379.707855
18 379.707825 0.194073 0.000477 -0.000767 -33.624729 0.000838 379.707855
[Rear_Toe1_03]
17 500.129700 0.165701 0.000119 -0.017856 86.640129 -0.021354 500.129761
18 500.129700 0.165701 0.000119 -179.991867 79.670807 -179.995377 500.129761
[Rear_Toe2_02]
17 340.494507 0.000238 -0.000954 179.998825 -87.003235 179.998825 340.494507
18 340.494507 0.000238 -0.000954 179.998825 -87.055367 179.998825 340.494507
[Rear_Toe2_03]
17 433.103577 0.000000 0.000238 -179.996323 53.591698 180.000000 433.103546
18 433.103577 0.000000 0.000238 -179.996338 53.486439 180.000000 433.103546
[Rear_Toe3_02]
17 340.494141 -0.000358 -0.000477 -179.994171 -87.016922 -179.994171 340.494171
18 340.494141 -0.000358 -0.000477 -179.994171 -87.077042 -179.994171 340.494171
[Rear_Toe3_03]
17 433.103577 0.001431 -0.000238 179.992554 53.730259 179.999908 433.103546
18 433.103577 0.001431 -0.000238 179.992569 53.491978 179.999939 433.103546
[Back_Bone]
17 1312.175781 -701.934692 0.000954 -2.271776 2.993845 -88.191925 1488.125488
18 1312.175781 -701.934692 0.000954 -2.423924 2.629283 -86.824364 1488.125488
[Head]
17 1406.159424 809.709290 0.001431 -0.846973 1.952980 7.194136 1622.625488
18 1406.159424 809.709290 0.001431 -1.000448 2.106717 6.024997 1622.625488
[Motor_Bone]
17 1158.364380 -417.834747 0.000477 -0.553468 1.343993 -104.639473 1231.419434
18 1158.364380 -417.834747 0.000477 -0.003500 -1.410986 -107.395294 1231.419434
[Ping_Mechanism]
17 1250.020020 -450.284607 19.855791 0.000103 -0.000053 82.120995 1328.796631
18 1257.391602 -454.437012 12.536940 0.000103 -0.000053 82.120995 1337.050415
[BN_LookIK]
17 193.241119 1380.371704 -0.002861 0.000000 89.965736 -31.038179 1393.832153
18 193.241119 1380.371704 -0.002861 0.000000 89.965736 -31.038179 1393.832153
[bottomMouth]
17 -435.092926 615.759399 -0.000954 -0.000022 0.000016 73.527184 753.966492
18 -435.092926 615.759399 -0.000954 -0.000022 0.000016 73.527184 753.966492
[L_Mouth01]
17 554.440979 7.658243 838.222046 150.204178 23.759130 109.605339 1005.027161
18 554.440979 7.658243 838.222046 150.204178 23.759130 109.605339 1005.027161
[L_mouthFront]
17 551.629089 934.514771 339.150421 0.000081 2.804060 79.119301 1136.941284
18 551.629089 934.514771 339.150421 0.000081 2.804060 79.119301 1136.941284
[mouthGun]
17 55.332661 1627.420898 0.000000 0.000023 0.000009 -11.038128 1628.361328
18 55.332661 1627.420898 0.000000 0.000023 0.000009 -11.038128 1628.361328
[R_Mouth01]
17 554.442383 7.659197 -838.223938 29.795891 -23.759109 109.605331 1005.029541
18 554.442383 7.659197 -838.223938 29.795891 -23.759109 109.605331 1005.029541
[R_mouthFront]
17 551.629089 934.514282 -339.151367 0.000029 -2.803930 79.119133 1136.941162
18 551.629089 934.514282 -339.151367 0.000029 -2.803930 79.119133 1136.941162
[TopMouth]
17 461.269867 -56.106091 -0.008583 -0.000059 -0.000268 92.025169 464.669525
18 461.269867 -56.106091 -0.008583 -0.000059 -0.000268 92.025169 464.669525
[weapon_bone]
17 -987.239868 1448.372803 0.001431 0.000000 89.965736 -31.038221 1752.833740
18 -987.239868 1448.372803 0.001431 0.000000 89.965736 -31.038221 1752.833740
